<?xml version="1.0" standalone="no"?>
<!DOCTYPE svg PUBLIC "-//W3C//DTD SVG 20010904//EN"
 "http://www.w3.org/TR/2001/REC-SVG-20010904/DTD/svg10.dtd">
<svg version="1.0" xmlns="http://www.w3.org/2000/svg"
 width="700.000000pt" height="700.000000pt" viewBox="0 0 700.000000 700.000000"
 preserveAspectRatio="xMidYMid meet">
<metadata>
Created by potrace 1.11, written by Peter Selinger 2001-2013
</metadata>
<g transform="translate(0.000000,700.000000) scale(0.100000,-0.100000)"
fill="#000000" stroke="none">
<path d="M0 3500 l0 -3500 3500 0 3500 0 0 3500 0 3500 -3500 0 -3500 0 0
-3500z m5939 2140 c246 -15 523 -50 709 -90 l52 -12 0 -56 c0 -31 7 -133 15
-227 8 -93 12 -171 10 -173 -2 -2 -62 12 -132 32 -893 253 -1666 139 -2162
-320 -468 -432 -661 -1197 -480 -1902 76 -297 206 -525 406 -712 354 -331 850
-475 1448 -420 221 20 541 84 799 159 l68 20 -5 -27 c-4 -15 -21 -119 -38
-232 -18 -113 -33 -207 -35 -209 -10 -13 -332 -66 -550 -92 -255 -29 -672 -37
-857 -15 -465 54 -839 195 -1152 435 -143 109 -314 295 -409 443 -213 334
-321 810 -296 1298 22 408 136 815 312 1109 311 521 822 842 1528 960 233 39
473 49 769 31z m-3289 -107 c0 -27 -4 -109 -10 -183 -36 -518 -71 -1206 -105
-2070 -39 -1013 -57 -1168 -159 -1375 -105 -214 -319 -385 -591 -474 -203 -65
-283 -76 -580 -76 -157 0 -320 6 -390 13 -115 13 -451 66 -486 77 -13 5 -18
23 -23 93 -12 164 -27 317 -32 346 -7 34 -16 35 166 -18 412 -121 763 -138
1018 -52 235 80 364 213 447 461 44 130 63 302 90 820 24 463 64 1935 65 2358
l0 127 295 0 295 0 0 -47z"/>
</g>
</svg>
